<svg fill="#fff" viewBox="-81 -21 682 682.66669" xmlns="http://www.w3.org/2000/svg"><path d="m453.628906 547.4375h-217.730468c-6.902344 0-12.5-5.597656-12.5-12.5 0-6.898438 5.597656-12.5 12.5-12.5h217.730468c6.902344 0 12.5 5.601562 12.5 12.5 0 6.902344-5.601562 12.5-12.5 12.5zm0 0"/><path d="m192.128906 547.4375c-6.902344 0-12.507812-5.597656-12.507812-12.5 0-6.898438 5.589844-12.5 12.492187-12.5h.015625c6.898438 0 12.5 5.601562 12.5 12.5 0 6.902344-5.601562 12.5-12.5 12.5zm0 0"/><path d="m417.613281 128.964844c-21.539062 0-39.058593-17.519532-39.058593-39.050782 0-21.539062 17.519531-39.058593 39.058593-39.058593 21.53125 0 39.050781 17.519531 39.050781 39.058593 0 21.53125-17.519531 39.050782-39.050781 39.050782zm0-53.109375c-7.753906 0-14.058593 6.308593-14.058593 14.058593 0 7.746094 6.304687 14.050782 14.058593 14.050782 7.75 0 14.050781-6.304688 14.050781-14.050782 0-7.75-6.300781-14.058593-14.050781-14.058593zm0 0"/><path d="m157.03125 399.398438h-50c-6.902344 0-12.5-5.59375-12.5-12.5v-50c0-6.898438 5.597656-12.5 12.5-12.5h50c6.90625 0 12.5 5.601562 12.5 12.5v50c0 6.90625-5.59375 12.5-12.5 12.5zm-37.5-25h25v-25h-25zm0 0"/><path d="m406.4375 399.398438h-50c-6.90625 0-12.5-5.59375-12.5-12.5v-50c0-6.898438 5.59375-12.5 12.5-12.5h50c6.902344 0 12.5 5.601562 12.5 12.5v50c0 6.90625-5.597656 12.5-12.5 12.5zm-37.5-25h25v-25h-25zm0 0"/><path d="m281.332031 399.398438h-50c-6.902343 0-12.5-5.59375-12.5-12.5v-50c0-6.898438 5.597657-12.5 12.5-12.5h50c6.90625 0 12.5 5.601562 12.5 12.5v50c0 6.90625-5.59375 12.5-12.5 12.5zm-37.5-25h25v-25h-25zm0 0"/><path d="m503.832031 0h-495c-6.898437 0-12.5 5.601562-12.5 12.5v615c0 6.898438 5.601563 12.5 12.5 12.5h495c6.902344 0 12.5-5.601562 12.5-12.5v-615c0-6.898438-5.597656-12.5-12.5-12.5zm-12.5 615h-470v-165.273438h470zm0-190.273438h-470v-124.726562h470zm-212.746093-198.238281 38.585937 48.175781h-232.3125l116.148437-145.015624zm25.761718-7.8125 39.308594-49.074219 84.152344 105.0625h-78.613282zm186.984375 56.324219h-31.234375l-106.6875-133.199219c-2.375-2.964843-5.964844-4.6875-9.753906-4.6875-3.796875 0-7.386719 1.722657-9.757812 4.6875l-45.5625 56.886719-77.5625-96.835938c-2.378907-2.964843-5.964844-4.6875-9.765626-4.6875-3.785156 0-7.375 1.722657-9.746093 4.6875l-138.691407 173.148438h-31.238281v-250h470zm0 0"/><path d="m103.671875 590c-31.726563 0-57.542969-25.796875-57.542969-57.5s25.808594-57.5 57.542969-57.5 57.550781 25.796875 57.550781 57.5-25.816406 57.5-57.550781 57.5zm0-90c-17.945313 0-32.542969 14.578125-32.542969 32.5s14.597656 32.5 32.542969 32.5c17.949219 0 32.550781-14.578125 32.550781-32.5s-14.601562-32.5-32.550781-32.5zm0 0"/></svg>