<svg viewBox="0 0 512 512" fill="#fff" xmlns="http://www.w3.org/2000/svg"><path d="m25.601562 512h238.933594c14.136719 0 25.597656-11.460938 25.597656-25.601562v-8.53125h17.066407c4.714843 0 8.535156-3.820313 8.535156-8.535157 0-4.710937-3.820313-8.53125-8.535156-8.53125h-17.066407v-68.265625h119.46875v17.066406c0 4.710938 3.820313 8.53125 8.53125 8.53125 4.714844 0 8.535157-3.820312 8.535157-8.53125v-17.066406h59.730469c14.140624 0 25.601562-11.464844 25.601562-25.601562v-341.332032c0-14.140624-11.460938-25.601562-25.601562-25.601562h-307.199219c-14.136719 0-25.597657 11.460938-25.597657 25.601562v76.796876h-17.066406c-4.714844 0-8.535156 3.820312-8.535156 8.535156 0 4.710937 3.820312 8.53125 8.535156 8.53125h17.066406v119.46875h-68.269531v-17.066406c0-4.714844-3.820312-8.535157-8.53125-8.535157-4.714843 0-8.535156 3.820313-8.535156 8.535157v17.066406h-42.664063c-14.140624 0-25.601562 11.460937-25.601562 25.601562v221.863282c0 14.140624 11.460938 25.601562 25.601562 25.601562zm238.933594-17.066406h-238.933594c-4.714843 0-8.535156-3.820313-8.535156-8.535156v-8.53125h256v8.53125c0 4.714843-3.820312 8.535156-8.53125 8.535156zm146.070313-294c1.417969-2.855469 4.332031-4.664063 7.523437-4.664063s6.105469 1.808594 7.523438 4.664063l63.792968 123.332031h-142.625l23.433594-45.300781zm-65.261719 89.039062-17.742188 34.292969h-21.441406l34.867188-67.414063c.226562-.519531.742187-.855468 1.3125-.851562.570312-.007812 1.085937.328125 1.304687.851562l9.386719 18.195313zm-155.007812 160.867188 33.84375-65.449219c1.203124-2.296875 3.207031-2.285156 4.394531 0l39.003906 75.410156h-82.40625l5.121094-9.933593zm-24.363282 9.960937h-22.851562l19.011718-31.464843 10.828126 17.921874zm320.425782-85.335937h-196.265626v-34.132813h204.800782v25.601563c0 4.710937-3.820313 8.53125-8.535156 8.53125zm-469.332032-110.929688c0-4.714844 3.820313-8.535156 8.535156-8.535156h204.796876c4.714843 0 8.535156-3.820312 8.535156-8.535156 0-4.710938-3.820313-8.53125-8.535156-8.53125h-59.730469v-213.332032c0-4.714843 3.820312-8.535156 8.53125-8.535156h307.199219c4.714843 0 8.535156 3.820313 8.535156 8.535156v272.125l-54.128906-104.644531c-4.34375-8.523437-13.105469-13.890625-22.675782-13.890625-9.570312 0-18.332031 5.367188-22.675781 13.890625l-32.785156 63.386719-3.859375-7.457031c-3.160156-6.183594-9.519532-10.074219-16.464844-10.074219s-13.304688 3.890625-16.464844 10.074219l-35.746094 69.09375v-19.4375c0-4.714844-3.820312-8.535157-8.53125-8.535157-4.714843 0-8.535156 3.820313-8.535156 8.535157v135.585937l-29.328125-56.714844c-3.335937-6.515624-10.039062-10.613281-17.359375-10.613281-7.316406 0-14.019531 4.097657-17.355468 10.613281l-26.863282 51.945313-7.484375-12.390625c-2.480469-4.617188-7.300781-7.5-12.542969-7.5-5.242187 0-10.0625 2.882812-12.542968 7.5l-26.402344 43.707031h-106.121094zm0 0"/><path d="m205.242188 334.984375c.109374.507813.265624 1.003906.460937 1.484375.246094.453125.53125.882812.855469 1.28125.328125.492188.707031.945312 1.132812 1.355469.121094.113281.171875.257812.300782.359375 1.550781 1.148437 3.414062 1.800781 5.339843 1.867187h25.601563c4.710937 0 8.53125-3.820312 8.53125-8.53125 0-4.714843-3.820313-8.535156-8.53125-8.535156h-7.84375l65.707031-82.132813c1.90625-2.378906 2.398437-5.597656 1.289063-8.4375-1.109376-2.839843-3.652344-4.875-6.667969-5.332031-3.011719-.460937-6.042969.722657-7.949219 3.101563l-61.601562 77v-1.265625c0-4.710938-3.820313-8.53125-8.535157-8.53125-4.710937 0-8.53125 3.820312-8.53125 8.53125v25.601562c0 .160157.085938.296875.09375.453125.050781.585938.167969 1.167969.347657 1.730469zm0 0"/><path d="m281.601562 81.066406c0-25.921875-21.015624-46.933594-46.933593-46.933594-25.921875 0-46.933594 21.011719-46.933594 46.933594s21.011719 46.933594 46.933594 46.933594c25.90625-.03125 46.898437-21.027344 46.933593-46.933594zm-46.933593 29.867188c-12.082031 0-22.972657-7.277344-27.59375-18.4375-4.625-11.160156-2.066407-24.007813 6.472656-32.546875 8.542969-8.542969 21.390625-11.097657 32.550781-6.476563 11.160156 4.625 18.4375 15.515625 18.4375 27.59375 0 16.496094-13.375 29.867188-29.867187 29.867188zm0 0"/><path d="m68.265625 273.066406c-18.851563 0-34.132813 15.28125-34.132813 34.132813 0 18.851562 15.28125 34.132812 34.132813 34.132812s34.132813-15.28125 34.132813-34.132812c0-18.851563-15.28125-34.132813-34.132813-34.132813zm0 51.199219c-9.425781 0-17.066406-7.640625-17.066406-17.066406s7.640625-17.066407 17.066406-17.066407 17.066406 7.640626 17.066406 17.066407-7.640625 17.066406-17.066406 17.066406zm0 0"/><path d="m337.066406 162.132812h85.332032c15.449218-.023437 29.375-9.296874 35.355468-23.539062 5.976563-14.242188 2.839844-30.679688-7.964844-41.71875-10.804687-11.039062-27.167968-14.53125-41.539062-8.863281-5.054688-18.570313-23.078125-30.53125-42.15625-27.972657-19.074219 2.558594-33.3125 18.847657-33.292969 38.09375 0 1.515626.09375 3.027344.28125 4.53125-15.589843 2.089844-26.886719 15.90625-25.835937 31.597657 1.054687 15.695312 14.09375 27.882812 29.820312 27.871093zm0-42.667968c.859375.007812 1.71875.09375 2.558594.257812.960938.195313 1.949219.222656 2.921875.078125l2.976563-.445312c2.675781-.398438 5.003906-2.039063 6.277343-4.429688 1.273438-2.386719 1.335938-5.234375.171875-7.679687-3.808594-7.917969-2.367187-17.363282 3.625-23.792969 5.992188-6.425781 15.316406-8.523437 23.480469-5.277344 8.167969 3.246094 13.507813 11.167969 13.457031 19.957031-.042968 1.054688-.160156 2.105469-.351562 3.140626-.386719 2.675781.515625 5.378906 2.433594 7.28125 1.921874 1.90625 4.628906 2.789062 7.304687 2.378906l.851563-.136719c1.769531-.265625 3.414062-1.085937 4.691406-2.339844 6.886718-6.710937 17.414062-7.988281 25.707031-3.113281 8.289063 4.871094 12.292969 14.691406 9.777344 23.972656s-10.933594 15.730469-20.550781 15.75h-85.332032c-7.070312 0-12.800781-5.730468-12.800781-12.800781 0-7.066406 5.730469-12.800781 12.800781-12.800781zm0 0"/><path d="m76.800781 162.132812c-4.714843 0-8.535156 3.820313-8.535156 8.535157v17.066406c0 4.710937 3.820313 8.53125 8.535156 8.53125 4.710938 0 8.53125-3.820313 8.53125-8.53125v-17.066406c0-4.714844-3.820312-8.535157-8.53125-8.535157zm0 0"/><path d="m85.332031 128c0-4.710938 3.820313-8.535156 8.535157-8.535156h8.53125c4.714843 0 8.535156-3.820313 8.535156-8.53125 0-4.714844-3.820313-8.535156-8.535156-8.535156h-8.53125c-14.140626 0-25.601563 11.464843-25.601563 25.601562v8.535156c0 4.710938 3.820313 8.53125 8.535156 8.53125 4.710938 0 8.53125-3.820312 8.53125-8.53125zm0 0"/><path d="m426.667969 452.265625v-8.53125c0-4.714844-3.820313-8.535156-8.535157-8.535156-4.710937 0-8.53125 3.820312-8.53125 8.535156v8.53125c0 4.714844-3.820312 8.535156-8.535156 8.535156h-8.53125c-4.714844 0-8.535156 3.820313-8.535156 8.53125 0 4.714844 3.820312 8.535157 8.535156 8.535157h8.53125c14.140625 0 25.601563-11.460938 25.601563-25.601563zm0 0"/><path d="m341.332031 477.867188h17.066407c4.714843 0 8.535156-3.820313 8.535156-8.535157 0-4.710937-3.820313-8.53125-8.535156-8.53125h-17.066407c-4.710937 0-8.53125 3.820313-8.53125 8.53125 0 4.714844 3.820313 8.535157 8.53125 8.535157zm0 0"/></svg>